<svg width="200" height="200" viewBox="0 0 200 200" fill="none" xmlns="http://www.w3.org/2000/svg">
<rect width="200" height="200" rx="15" fill="#1F021C"/>
<path d="M33.24 107.416C33.24 100.771 34.36 95.0213 36.6 90.168C38.9147 85.24 42.0507 81.5067 46.008 78.968C49.9653 76.3547 54.408 75.048 59.336 75.048C63.4427 75.048 66.9893 75.9067 69.976 77.624C72.9627 79.2667 75.24 81.544 76.808 84.456V75.832H101.56V139H76.808V130.376C75.24 133.288 72.9627 135.603 69.976 137.32C66.9893 138.963 63.4427 139.784 59.336 139.784C54.408 139.784 49.9653 138.515 46.008 135.976C42.0507 133.363 38.9147 129.629 36.6 124.776C34.36 119.848 33.24 114.061 33.24 107.416ZM76.808 107.416C76.808 104.056 75.9493 101.443 74.232 99.576C72.5147 97.7093 70.312 96.776 67.624 96.776C64.936 96.776 62.7333 97.7093 61.016 99.576C59.2987 101.443 58.44 104.056 58.44 107.416C58.44 110.776 59.2987 113.389 61.016 115.256C62.7333 117.123 64.936 118.056 67.624 118.056C70.312 118.056 72.5147 117.123 74.232 115.256C75.9493 113.389 76.808 110.776 76.808 107.416Z" fill="#FFDAFC"/>
<path d="M166.597 112.344H149.909V129.48H126.053V112.344H109.365V89.608H126.053V72.36H149.909V89.608H166.597V112.344Z" fill="#97128B"/>
</svg>
