<svg width="160" height="54" viewBox="0 0 160 54" fill="none" xmlns="http://www.w3.org/2000/svg">
<path d="M0.96 26.8859C0.96 24.0379 1.44 21.5739 2.4 19.4939C3.392 17.3819 4.736 15.7819 6.432 14.6939C8.128 13.5739 10.032 13.0139 12.144 13.0139C13.904 13.0139 15.424 13.3819 16.704 14.1179C17.984 14.8219 18.96 15.7979 19.632 17.0459V13.3499H30.24V40.4219H19.632V36.7259C18.96 37.9739 17.984 38.9659 16.704 39.7019C15.424 40.4059 13.904 40.7579 12.144 40.7579C10.032 40.7579 8.128 40.2139 6.432 39.1259C4.736 38.0059 3.392 36.4059 2.4 34.3259C1.44 32.2139 0.96 29.7339 0.96 26.8859ZM19.632 26.8859C19.632 25.4459 19.264 24.3259 18.528 23.5259C17.792 22.7259 16.848 22.3259 15.696 22.3259C14.544 22.3259 13.6 22.7259 12.864 23.5259C12.128 24.3259 11.76 25.4459 11.76 26.8859C11.76 28.3259 12.128 29.4459 12.864 30.2459C13.6 31.0459 14.544 31.4459 15.696 31.4459C16.848 31.4459 17.792 31.0459 18.528 30.2459C19.264 29.4459 19.632 28.3259 19.632 26.8859ZM45.681 17.0459C46.353 15.7979 47.313 14.8219 48.561 14.1179C49.841 13.3819 51.361 13.0139 53.121 13.0139C55.233 13.0139 57.137 13.5739 58.833 14.6939C60.529 15.7819 61.857 17.3819 62.817 19.4939C63.809 21.5739 64.305 24.0379 64.305 26.8859C64.305 29.7339 63.809 32.2139 62.817 34.3259C61.857 36.4059 60.529 38.0059 58.833 39.1259C57.137 40.2139 55.233 40.7579 53.121 40.7579C51.361 40.7579 49.841 40.4059 48.561 39.7019C47.313 38.9659 46.353 37.9739 45.681 36.7259V53.3819H35.025V13.3499H45.681V17.0459ZM53.505 26.8859C53.505 25.4459 53.137 24.3259 52.401 23.5259C51.665 22.7259 50.721 22.3259 49.569 22.3259C48.417 22.3259 47.473 22.7259 46.737 23.5259C46.001 24.3259 45.633 25.4459 45.633 26.8859C45.633 28.3259 46.001 29.4459 46.737 30.2459C47.473 31.0459 48.417 31.4459 49.569 31.4459C50.721 31.4459 51.665 31.0459 52.401 30.2459C53.137 29.4459 53.505 28.3259 53.505 26.8859ZM73.026 11.1899C71.17 11.1899 69.682 10.6939 68.562 9.70187C67.442 8.70987 66.882 7.46187 66.882 5.95787C66.882 4.42187 67.442 3.15787 68.562 2.16587C69.682 1.14187 71.17 0.629872 73.026 0.629872C74.85 0.629872 76.322 1.14187 77.442 2.16587C78.562 3.15787 79.122 4.42187 79.122 5.95787C79.122 7.46187 78.562 8.70987 77.442 9.70187C76.322 10.6939 74.85 11.1899 73.026 11.1899ZM78.306 13.3499V40.4219H67.65V13.3499H78.306ZM99.9668 31.3499V40.4219H95.9348C88.5108 40.4219 84.7988 36.7259 84.7988 29.3339V22.2299H81.4388V13.3499H84.7988V6.82187H95.4548V13.3499H99.8708V22.2299H95.4548V29.5259C95.4548 30.1659 95.5988 30.6299 95.8868 30.9179C96.2068 31.2059 96.7188 31.3499 97.4228 31.3499H99.9668ZM102.585 26.8859C102.585 24.0379 103.065 21.5739 104.025 19.4939C105.017 17.3819 106.361 15.7819 108.057 14.6939C109.753 13.5739 111.657 13.0139 113.769 13.0139C115.529 13.0139 117.049 13.3819 118.329 14.1179C119.609 14.8219 120.585 15.7979 121.257 17.0459V13.3499H131.865V40.4219H121.257V36.7259C120.585 37.9739 119.609 38.9659 118.329 39.7019C117.049 40.4059 115.529 40.7579 113.769 40.7579C111.657 40.7579 109.753 40.2139 108.057 39.1259C106.361 38.0059 105.017 36.4059 104.025 34.3259C103.065 32.2139 102.585 29.7339 102.585 26.8859ZM121.257 26.8859C121.257 25.4459 120.889 24.3259 120.153 23.5259C119.417 22.7259 118.473 22.3259 117.321 22.3259C116.169 22.3259 115.225 22.7259 114.489 23.5259C113.753 24.3259 113.385 25.4459 113.385 26.8859C113.385 28.3259 113.753 29.4459 114.489 30.2459C115.225 31.0459 116.169 31.4459 117.321 31.4459C118.473 31.4459 119.417 31.0459 120.153 30.2459C120.889 29.4459 121.257 28.3259 121.257 26.8859Z" fill="#FFDAFC"/>
<path d="M159.738 28.9979H152.586V36.3419H142.362V28.9979H135.21V19.2539H142.362V11.8619H152.586V19.2539H159.738V28.9979Z" fill="#97128B"/>
</svg>
