<svg width="134" height="68" viewBox="0 0 134 68" fill="none" xmlns="http://www.w3.org/2000/svg">
<path d="M0.24 35.1936C0.24 28.5483 1.36 22.7989 3.6 17.9456C5.91467 13.0176 9.05067 9.28425 13.008 6.74559C16.9653 4.13225 21.408 2.82558 26.336 2.82558C30.4427 2.82558 33.9893 3.68425 36.976 5.40158C39.9627 7.04425 42.24 9.32159 43.808 12.2336V3.60959H68.56V66.7776H43.808V58.1536C42.24 61.0656 39.9627 63.3803 36.976 65.0976C33.9893 66.7403 30.4427 67.5616 26.336 67.5616C21.408 67.5616 16.9653 66.2923 13.008 63.7536C9.05067 61.1403 5.91467 57.4069 3.6 52.5536C1.36 47.6256 0.24 41.8389 0.24 35.1936ZM43.808 35.1936C43.808 31.8336 42.9493 29.2203 41.232 27.3536C39.5147 25.4869 37.312 24.5536 34.624 24.5536C31.936 24.5536 29.7333 25.4869 28.016 27.3536C26.2987 29.2203 25.44 31.8336 25.44 35.1936C25.44 38.5536 26.2987 41.1669 28.016 43.0336C29.7333 44.9003 31.936 45.8336 34.624 45.8336C37.312 45.8336 39.5147 44.9003 41.232 43.0336C42.9493 41.1669 43.808 38.5536 43.808 35.1936Z" fill="#FFDAFC"/>
<path d="M133.597 40.1216H116.909V57.2576H93.053V40.1216H76.365V17.3856H93.053V0.137585H116.909V17.3856H133.597V40.1216Z" fill="#97128B"/>
</svg>
